<svg width="14" height="14" viewBox="0 0 14 14" fill="none" xmlns="http://www.w3.org/2000/svg">
<path d="M1.75009 6.99995C1.75009 7.68939 1.88588 8.37208 2.14972 9.00903C2.41356 9.64599 2.80027 10.2247 3.28778 10.7123C3.77528 11.1998 4.35404 11.5865 4.991 11.8503C5.62795 12.1141 6.31064 12.2499 7.00008 12.2499C7.68952 12.2499 8.37221 12.1141 9.00916 11.8503C9.64612 11.5865 10.2249 11.1998 10.7124 10.7123C11.1999 10.2247 11.5866 9.64599 11.8504 9.00903C12.1143 8.37208 12.2501 7.68939 12.2501 6.99995C12.2501 5.60757 11.6969 4.27221 10.7124 3.28765C9.72782 2.30308 8.39246 1.74996 7.00008 1.74996C5.6077 1.74996 4.27234 2.30308 3.28778 3.28765C2.30321 4.27221 1.75009 5.60757 1.75009 6.99995Z" stroke="#2E62FF" stroke-width="0.986667" stroke-linecap="round" stroke-linejoin="round"/>
<path d="M2.10006 5.25001H11.9" stroke="#2E62FF" stroke-width="0.986667" stroke-linecap="round" stroke-linejoin="round"/>
<path d="M2.10006 8.74999H11.9" stroke="#2E62FF" stroke-width="0.986667" stroke-linecap="round" stroke-linejoin="round"/>
<path d="M6.70825 1.74996C5.72554 3.32473 5.20454 5.14371 5.20454 6.99995C5.20454 8.85619 5.72554 10.6752 6.70825 12.2499" stroke="#2E62FF" stroke-width="0.986667" stroke-linecap="round" stroke-linejoin="round"/>
<path d="M7.29161 1.74996C8.27432 3.32473 8.79532 5.14371 8.79532 6.99995C8.79532 8.85619 8.27432 10.6752 7.29161 12.2499" stroke="#2E62FF" stroke-width="0.986667" stroke-linecap="round" stroke-linejoin="round"/>
</svg>
