<svg width="10" height="16" viewBox="0 0 10 16" fill="none" xmlns="http://www.w3.org/2000/svg">
<path d="M2.22222 4.44792C2.22222 3.22222 3.21875 2.2257 4.44445 2.2257H5.55556C6.78126 2.2257 7.77778 3.22222 7.77778 4.44792V4.57292C7.77778 5.32986 7.39237 6.03473 6.75695 6.44098L5.29167 7.38195C4.41667 7.94445 3.88889 8.9132 3.88889 9.95139V10C3.88889 10.6146 4.38542 11.1111 5 11.1111C5.61459 11.1111 6.11112 10.6146 6.11112 10V9.95139C6.11112 9.66667 6.25695 9.40278 6.49306 9.25001L7.95834 8.30903C9.22917 7.48959 10 6.08334 10 4.56945V4.44445C10 1.98958 8.01042 0 5.55556 0H4.44445C1.98958 0.00347222 0 1.99306 0 4.44792C0 5.0625 0.496528 5.55903 1.11111 5.55903C1.7257 5.55903 2.22222 5.0625 2.22222 4.44792ZM5 15.559C5.36836 15.559 5.72163 15.4127 5.9821 15.1522C6.24256 14.8918 6.38889 14.5385 6.38889 14.1701C6.38889 13.8018 6.24256 13.4485 5.9821 13.1881C5.72163 12.9276 5.36836 12.7813 5 12.7813C4.63165 12.7813 4.27838 12.9276 4.01791 13.1881C3.75744 13.4485 3.61111 13.8018 3.61111 14.1701C3.61111 14.5385 3.75744 14.8918 4.01791 15.1522C4.27838 15.4127 4.63165 15.559 5 15.559Z" fill="white"/>
</svg>
