<svg width="30" height="27" viewBox="0 0 30 27" fill="none" xmlns="http://www.w3.org/2000/svg">
<path d="M11.111 10.0001C11.111 9.85272 11.1696 9.71141 11.2738 9.60723C11.378 9.50304 11.5193 9.44451 11.6666 9.44451H18.3333C18.4806 9.44451 18.6219 9.50304 18.7261 9.60723C18.8303 9.71141 18.8888 9.85272 18.8888 10.0001V16.6667C18.8888 16.8141 18.8303 16.9554 18.7261 17.0596C18.6219 17.1638 18.4806 17.2223 18.3333 17.2223H11.6666C11.5193 17.2223 11.378 17.1638 11.2738 17.0596C11.1696 16.9554 11.111 16.8141 11.111 16.6667V10.0001Z" stroke="white" stroke-width="0.986667" stroke-linecap="round" stroke-linejoin="round"/>
<path d="M13.3332 11.6667H16.6665V15H13.3332V11.6667Z" stroke="white" stroke-width="0.986667" stroke-linecap="round" stroke-linejoin="round"/>
<path d="M9.99986 12.2223H11.111" stroke="white" stroke-width="0.986667" stroke-linecap="round" stroke-linejoin="round"/>
<path d="M9.99986 14.4445H11.111" stroke="white" stroke-width="0.986667" stroke-linecap="round" stroke-linejoin="round"/>
<path d="M13.8887 8.33336V9.44447" stroke="white" stroke-width="0.986667" stroke-linecap="round" stroke-linejoin="round"/>
<path d="M16.1109 8.33336V9.44447" stroke="white" stroke-width="0.986667" stroke-linecap="round" stroke-linejoin="round"/>
<path d="M19.9999 12.2223H18.8888" stroke="white" stroke-width="0.986667" stroke-linecap="round" stroke-linejoin="round"/>
<path d="M19.9999 14.4445H18.8888" stroke="white" stroke-width="0.986667" stroke-linecap="round" stroke-linejoin="round"/>
<path d="M16.1109 18.3334V17.2223" stroke="white" stroke-width="0.986667" stroke-linecap="round" stroke-linejoin="round"/>
<path d="M13.8887 18.3334V17.2223" stroke="white" stroke-width="0.986667" stroke-linecap="round" stroke-linejoin="round"/>
</svg>
