<svg width="14" height="14" viewBox="0 0 14 14" fill="none" xmlns="http://www.w3.org/2000/svg">
<path d="M11.3746 7.33365L6.99961 11.6666L2.62461 7.33365C2.33604 7.05285 2.10874 6.71533 1.95702 6.34236C1.8053 5.96939 1.73244 5.56905 1.74305 5.16654C1.75365 4.76403 1.84748 4.36807 2.01862 4.00361C2.18977 3.63914 2.43453 3.31406 2.73748 3.04883C3.04044 2.78361 3.39502 2.58398 3.77892 2.46253C4.16281 2.34107 4.5677 2.30042 4.96808 2.34313C5.36845 2.38584 5.75565 2.51099 6.10529 2.71069C6.45492 2.91039 6.75942 3.18033 6.99961 3.50349C7.24083 3.18267 7.54569 2.9151 7.89508 2.71752C8.24448 2.51993 8.63089 2.39659 9.03015 2.35522C9.4294 2.31384 9.8329 2.35532 10.2154 2.47706C10.5979 2.5988 10.9511 2.79817 11.253 3.06271C11.5549 3.32724 11.7989 3.65124 11.9698 4.01443C12.1408 4.37762 12.2349 4.77217 12.2463 5.17341C12.2577 5.57464 12.1862 5.9739 12.0362 6.34622C11.8862 6.71854 11.661 7.05589 11.3746 7.33715" stroke="#2E62FF" stroke-width="0.986667" stroke-linecap="round" stroke-linejoin="round"/>
</svg>
