<svg width="27" height="27" viewBox="0 0 27 27" fill="none" xmlns="http://www.w3.org/2000/svg">
<path d="M8.33208 17.3759C8.33208 17.6828 8.57894 17.9296 8.88579 17.9296C9.19264 17.9296 9.4395 17.6828 9.4395 17.3759V9.62398C9.4395 9.31714 9.19264 9.07027 8.88579 9.07027C8.57894 9.07027 8.33208 9.31714 8.33208 9.62398V17.3759ZM11.4605 13.0962C11.3498 13.2 11.2852 13.3477 11.2852 13.5C11.2852 13.6522 11.3475 13.7976 11.4605 13.9037L14.5982 16.8568C14.822 17.0668 15.1704 17.0552 15.3803 16.8337C15.5903 16.6123 15.5788 16.2616 15.3573 16.0516L13.2347 14.0537H15.1612H18.1143C18.4211 14.0537 18.668 13.8068 18.668 13.5C18.668 13.1931 18.4211 12.9462 18.1143 12.9462H15.1612H13.2347L15.355 10.9506C15.5788 10.7406 15.588 10.3899 15.378 10.1685C15.1681 9.94698 14.8174 9.93545 14.5959 10.1454L11.4582 13.0985L11.4605 13.0962Z" fill="white"/>
</svg>
