<svg width="14" height="14" viewBox="0 0 14 14" fill="none" xmlns="http://www.w3.org/2000/svg">
<path fill-rule="evenodd" clip-rule="evenodd" d="M2.18882 5.77192C2.18913 4.82164 2.56676 3.91036 3.23872 3.23841C3.91067 2.56645 4.82195 2.18882 5.77223 2.18851C6.72242 2.18897 7.63354 2.56668 8.30537 3.23861C8.9772 3.91055 9.35475 4.82174 9.35506 5.77192C9.35506 6.10326 9.3119 6.41651 9.22731 6.71226C9.20893 6.77672 9.20342 6.84417 9.2111 6.91076C9.21879 6.97735 9.23951 7.04178 9.27209 7.10036C9.30467 7.15894 9.34847 7.21053 9.40099 7.25219C9.45351 7.29384 9.51372 7.32475 9.57819 7.34313C9.64265 7.36152 9.7101 7.36702 9.77669 7.35934C9.84328 7.35166 9.90771 7.33093 9.96629 7.29835C10.0846 7.23255 10.1719 7.12244 10.2091 6.99226C10.3211 6.60142 10.3759 6.19309 10.3759 5.77192C10.3756 4.551 9.89048 3.38016 9.02721 2.51678C8.16394 1.6534 6.99316 1.16814 5.77223 1.16767C4.5512 1.16798 3.38027 1.65317 2.51688 2.51657C1.65348 3.37997 1.16829 4.5509 1.16798 5.77192C1.16845 6.99285 1.6537 8.16363 2.51708 9.0269C3.38046 9.89017 4.5513 10.3753 5.77223 10.3756C6.88173 10.3756 7.90373 9.97892 8.6994 9.32442L11.9556 12.6774C12.0499 12.7745 12.179 12.8301 12.3144 12.832C12.4498 12.8339 12.5804 12.782 12.6774 12.6876C12.7745 12.5933 12.8301 12.4642 12.832 12.3288C12.834 12.1934 12.782 12.0628 12.6876 11.9658L9.08556 8.25692C9.03794 8.20792 8.98097 8.16898 8.91802 8.1424C8.85508 8.11583 8.78743 8.10216 8.71911 8.10222C8.65078 8.10227 8.58316 8.11605 8.52025 8.14272C8.45735 8.16939 8.40044 8.20843 8.3529 8.25751C8.01844 8.60429 7.61757 8.88017 7.1742 9.06868C6.73082 9.2572 6.25402 9.35449 5.77223 9.35475C4.82205 9.35445 3.91086 8.97689 3.23892 8.30506C2.56698 7.63323 2.18928 6.72211 2.18882 5.77192ZM5.77223 4.95234C5.87975 4.95234 5.98621 4.97352 6.08554 5.01466C6.18487 5.0558 6.27512 5.11611 6.35114 5.19213C6.42717 5.26816 6.48747 5.35841 6.52862 5.45774C6.56976 5.55707 6.59094 5.66353 6.59094 5.77105C6.59094 5.87856 6.56976 5.98502 6.52862 6.08435C6.48747 6.18368 6.42717 6.27394 6.35114 6.34996C6.27512 6.42599 6.18487 6.48629 6.08554 6.52744C5.98621 6.56858 5.87975 6.58976 5.77223 6.58976C5.5551 6.58976 5.34685 6.5035 5.19332 6.34996C5.03978 6.19642 4.95352 5.98818 4.95352 5.77105C4.95352 5.55391 5.03978 5.34567 5.19332 5.19213C5.34685 5.0386 5.5551 4.95234 5.77223 4.95234Z" fill="white"/>
</svg>
