<svg width="37" height="27" viewBox="0 0 37 27" fill="none" xmlns="http://www.w3.org/2000/svg">
<path d="M16.8181 10.6516L13.1742 14.2955C12.9512 14.5186 12.8259 14.821 12.8259 15.1364C12.8259 15.4519 12.9512 15.7543 13.1742 15.9774C13.3972 16.2004 13.6997 16.3257 14.0151 16.3257C14.3305 16.3257 14.633 16.2004 14.856 15.9774L18.5 12.3334C18.946 11.8874 19.1966 11.2824 19.1966 10.6516C19.1966 10.0208 18.946 9.41583 18.5 8.96979C18.0539 8.52374 17.4489 8.27315 16.8181 8.27315C16.1873 8.27315 15.5824 8.52374 15.1363 8.96979L11.4924 12.6137C10.8233 13.2828 10.4474 14.1902 10.4474 15.1364C10.4474 16.0827 10.8233 16.9901 11.4924 17.6592C12.1614 18.3282 13.0689 18.7041 14.0151 18.7041C14.9613 18.7041 15.8688 18.3282 16.5378 17.6592L20.1818 14.0152" stroke="white" stroke-width="0.986667" stroke-linecap="round" stroke-linejoin="round"/>
</svg>
